HIERARCHY
ROOT hip
{
  OFFSET 0 0 0
  CHANNELS 6 Xposition Yposition Zposition Zrotation Yrotation Xrotation
  JOINT abdomen
  {
    OFFSET 0 20.6881 -0.73152
    CHANNELS 3 Zrotation Xrotation Yrotation
    JOINT chest
    {
      OFFSET 0 11.7043 -0.48768
      CHANNELS 3 Zrotation Xrotation Yrotation
      JOINT neck
      {
        OFFSET 0 22.1894 -2.19456
        CHANNELS 3 Zrotation Xrotation Yrotation
        JOINT head
        {
          OFFSET -0.24384 7.07133 1.2192
          CHANNELS 3 Zrotation Xrotation Yrotation
          JOINT leftEye
          {
            OFFSET 4.14528 8.04674 8.04672
            CHANNELS 3 Zrotation Xrotation Yrotation
            End Site
            {
              OFFSET 1 0 0
            }
          }
          JOINT rightEye
          {
            OFFSET -3.6576 8.04674 8.04672
            CHANNELS 3 Zrotation Xrotation Yrotation
            End Site
            {
              OFFSET 1 0 0
            }
          }
        }
      }
      JOINT rCollar
      {
        OFFSET -2.68224 19.2634 -4.8768
        CHANNELS 3 Zrotation Xrotation Yrotation
        JOINT rShldr
        {
          OFFSET -8.77824 -1.95073 1.46304
          CHANNELS 3 Zrotation Xrotation Yrotation
          JOINT rForeArm
          {
            OFFSET -28.1742 -1.7115 0.48768
            CHANNELS 3 Zrotation Xrotation Yrotation
            JOINT rHand
            {
              OFFSET -22.5879 0.773209 7.07136
              CHANNELS 3 Zrotation Xrotation Yrotation
              JOINT rThumb1
              {
                OFFSET -1.2192 -0.487915 3.41376
                CHANNELS 3 Zrotation Xrotation Yrotation
                JOINT rThumb2
                {
                  OFFSET -3.37035 -0.52449 3.41376
                  CHANNELS 3 Zrotation Xrotation Yrotation
                  End Site
                  {
                    OFFSET -1.78271 -1.18214 1.43049
                  }
                }
              }
              JOINT rIndex1
              {
                OFFSET -7.75947 0.938293 5.60832
                CHANNELS 3 Zrotation Xrotation Yrotation
                JOINT rIndex2
                {
                  OFFSET -2.54057 -0.884171 1.56538
                  CHANNELS 3 Zrotation Xrotation Yrotation
                  End Site
                  {
                    OFFSET -1.62519 -0.234802 1.16502
                  }
                }
              }
              JOINT rMid1
              {
                OFFSET -8.24714 1.18213 3.41376
                CHANNELS 3 Zrotation Xrotation Yrotation
                JOINT rMid2
                {
                  OFFSET -3.10165 -0.590103 1.0647
                  CHANNELS 3 Zrotation Xrotation Yrotation
                  End Site
                  {
                    OFFSET -2.48547 -0.328903 0.83742
                  }
                }
              }
              JOINT rRing1
              {
                OFFSET -8.82822 0.546677 1.51678
                CHANNELS 3 Zrotation Xrotation Yrotation
                JOINT rRing2
                {
                  OFFSET -2.60934 -0.819778 -0.0198488
                  CHANNELS 3 Zrotation Xrotation Yrotation
                  End Site
                  {
                    OFFSET -2.33842 -0.294052 0.168128
                  }
                }
              }
              JOINT rPinky1
              {
                OFFSET -8.27202 -0.0477905 -0.4584
                CHANNELS 3 Zrotation Xrotation Yrotation
                JOINT rPinky2
                {
                  OFFSET -1.82734 -0.647385 -0.700984
                  CHANNELS 3 Zrotation Xrotation Yrotation
                  End Site
                  {
                    OFFSET -1.69225 -0.51767 -0.607171
                  }
                }
              }
            }
          }
        }
      }
      JOINT lCollar
      {
        OFFSET 2.68224 19.2634 -4.8768
        CHANNELS 3 Zrotation Xrotation Yrotation
        JOINT lShldr
        {
          OFFSET 8.77824 -1.95073 1.46304
          CHANNELS 3 Zrotation Xrotation Yrotation
          JOINT lForeArm
          {
            OFFSET 28.1742 -1.7115 0.48768
            CHANNELS 3 Zrotation Xrotation Yrotation
            JOINT lHand
            {
              OFFSET 22.5879 0.773209 7.07136
              CHANNELS 3 Zrotation Xrotation Yrotation
              JOINT lThumb1
              {
                OFFSET 1.2192 -0.487915 3.41376
                CHANNELS 3 Zrotation Xrotation Yrotation
                JOINT lThumb2
                {
                  OFFSET 3.37035 -0.52449 3.41376
                  CHANNELS 3 Zrotation Xrotation Yrotation
                  End Site
                  {
                    OFFSET 1.78271 -1.18214 1.43049
                  }
                }
              }
              JOINT lIndex1
              {
                OFFSET 7.75947 0.938293 5.60832
                CHANNELS 3 Zrotation Xrotation Yrotation
                JOINT lIndex2
                {
                  OFFSET 2.54057 -0.884171 1.56538
                  CHANNELS 3 Zrotation Xrotation Yrotation
                  End Site
                  {
                    OFFSET 1.62519 -0.234802 1.16502
                  }
                }
              }
              JOINT lMid1
              {
                OFFSET 8.24714 1.18213 3.41376
                CHANNELS 3 Zrotation Xrotation Yrotation
                JOINT lMid2
                {
                  OFFSET 3.10165 -0.590103 1.0647
                  CHANNELS 3 Zrotation Xrotation Yrotation
                  End Site
                  {
                    OFFSET 2.48547 -0.328903 0.83742
                  }
                }
              }
              JOINT lRing1
              {
                OFFSET 8.82822 0.546677 1.51678
                CHANNELS 3 Zrotation Xrotation Yrotation
                JOINT lRing2
                {
                  OFFSET 2.60934 -0.819778 -0.0198488
                  CHANNELS 3 Zrotation Xrotation Yrotation
                  End Site
                  {
                    OFFSET 2.33842 -0.294052 0.168128
                  }
                }
              }
              JOINT lPinky1
              {
                OFFSET 8.27202 -0.0477905 -0.4584
                CHANNELS 3 Zrotation Xrotation Yrotation
                JOINT lPinky2
                {
                  OFFSET 1.82734 -0.647385 -0.700984
                  CHANNELS 3 Zrotation Xrotation Yrotation
                  End Site
                  {
                    OFFSET 1.69225 -0.51767 -0.607171
                  }
                }
              }
            }
          }
        }
      }
    }
  }
  JOINT rButtock
  {
    OFFSET -8.77824 4.35084 1.2192
    CHANNELS 3 Zrotation Xrotation Yrotation
    JOINT rThigh
    {
      OFFSET 0 -1.70687 -2.19456
      CHANNELS 3 Zrotation Xrotation Yrotation
      JOINT rShin
      {
        OFFSET 0 -36.8199 0.73152
        CHANNELS 3 Zrotation Xrotation Yrotation
        JOINT rFoot
        {
          OFFSET 0.73152 -45.1104 -5.12064
          CHANNELS 3 Zrotation Xrotation Yrotation
          End Site
          {
            OFFSET -1.1221 -3.69964 12.103
          }
        }
      }
    }
  }
  JOINT lButtock
  {
    OFFSET 8.77824 4.35084 1.2192
    CHANNELS 3 Zrotation Xrotation Yrotation
    JOINT lThigh
    {
      OFFSET 0 -1.70687 -2.19456
      CHANNELS 3 Zrotation Xrotation Yrotation
      JOINT lShin
      {
        OFFSET 0 -36.8199 0.73152
        CHANNELS 3 Zrotation Xrotation Yrotation
        JOINT lFoot
        {
          OFFSET -0.73152 -45.1104 -5.12064
          CHANNELS 3 Zrotation Xrotation Yrotation
          End Site
          {
            OFFSET 1.1221 -3.69964 12.103
          }
        }
      }
    }
  }
}
MOTION
Frames:	9
Frame Time:	0.00833333
0.893359 81.7298 -9.48903 -10.4917 10.5771 -3.5 9.21336 3.75799 -4.73967 3.27889 -3.94589 -1.10038 10.5739 13.2279 -10.68 -15.5737 -25.5368 -25.3732 -0.0 0.0 0.0 -0.0 0.0 0.0 2.14677e-14 2.48328e-14 3.03712e-13 8.10811 42.9441 59.1186 -28.395 -37.1122 78.8867 -0.354156 -16.6915 -2.41518 7.67371e-10 -6.94701e-10 6.6473e-10 1.3197e-09 -1.21727e-09 1.15551e-09 7.67378e-10 -6.94696e-10 6.64714e-10 7.73091 5.47488 0.417314 7.67371e-10 -6.94703e-10 6.64725e-10 2.90554 0.965183 0.102902 7.67374e-10 -6.94705e-10 6.64728e-10 10.2786 0.731801 0.0259123 7.67367e-10 -6.94704e-10 6.64734e-10 2.22167 -0.733487 -0.20892 2.14184e-14 2.48321e-14 3.03547e-13 12.8396 -17.5669 -16.5197 28.4228 -34.8816 -75.1481 0.0389282 -5.61504 0.791713 3.88492e-10 3.81053e-09 -1.8827e-09 6.76799e-10 6.58011e-09 -3.2502e-09 3.88486e-10 3.81053e-09 -1.88268e-09 -7.73091 5.47488 -0.417314 3.88493e-10 3.81052e-09 -1.8827e-09 -2.90554 0.965183 -0.102902 3.88488e-10 3.81053e-09 -1.8827e-09 -10.2786 0.731801 -0.0259123 3.88499e-10 3.81053e-09 -1.88271e-09 -2.22167 -0.733487 0.20892 -2.03217e-16 0.0 -3.88251e-19 -1.6285 -10.8112 10.5441 -0.296777 39.0204 0.696101 0.0586038 -16.3219 1.83099 2.03217e-16 0.0 3.88251e-19 7.85357 -23.7242 -6.73061 0.666271 51.5686 -1.02393 -1.76224 -23.5069 -4.9662
0.614627 81.7645 -9.35034 -10.9075 10.563 -3.4768 9.6836 3.78914 -4.73115 3.4901 -3.77288 -1.08112 10.469 12.8806 -10.9545 -15.3342 -25.3429 -25.9042 -0.0 0.0 0.0 -0.0 0.0 0.0 -1.06428e-13 1.22387e-13 4.15095e-13 7.43678 42.7559 59.1951 -28.3962 -37.09 78.8488 -0.343276 -16.4406 -2.37679 1.16547e-09 -4.45618e-10 2.56566e-10 2.0116e-09 -7.85692e-10 4.5568e-10 1.16548e-09 -4.45607e-10 2.56552e-10 7.73091 5.47488 0.417314 1.16546e-09 -4.45618e-10 2.56562e-10 2.90554 0.965183 0.102902 1.16547e-09 -4.4562e-10 2.56566e-10 10.2786 0.731801 0.0259123 1.16546e-09 -4.45618e-10 2.56572e-10 2.22167 -0.733487 -0.20892 -1.06492e-13 1.22388e-13 4.14917e-13 13.1325 -18.1 -16.0058 28.4273 -35.0534 -75.4306 0.0421172 -5.8434 0.82413 9.51496e-10 4.73365e-09 -2.93113e-09 1.65312e-09 8.17272e-09 -5.06018e-09 9.5149e-10 4.73364e-09 -2.93112e-09 -7.73091 5.47488 -0.417314 9.51495e-10 4.73363e-09 -2.93113e-09 -2.90554 0.965183 -0.102902 9.5149e-10 4.73364e-09 -2.93113e-09 -10.2786 0.731801 -0.0259123 9.51504e-10 4.73365e-09 -2.93114e-09 -2.22167 -0.733487 0.20892 -2.03217e-16 0.0 -3.88251e-19 -1.35051 -10.0337 10.5664 -0.267986 37.5593 0.655031 0.425858 -15.7471 2.96026 2.03217e-16 0.0 3.88251e-19 8.57409 -23.6995 -6.95473 0.672044 51.6945 -1.02694 -1.87117 -23.5028 -5.22043
0.332161 81.7649 -9.18355 -11.4767 10.6115 -3.5806 10.1081 3.79411 -4.75561 3.69955 -3.61203 -1.07329 10.4113 12.6044 -11.2007 -15.141 -25.2488 -26.3933 -0.0 0.0 0.0 -0.0 0.0 0.0 -2.02331e-13 1.80297e-13 4.47762e-13 6.76027 42.5347 59.2889 -28.3964 -37.087 78.8434 -0.335242 -16.2505 -2.34779 1.35855e-09 -1.56863e-10 -1.87758e-10 2.3499e-09 -2.82519e-10 -3.09189e-10 1.35856e-09 -1.56849e-10 -1.8777e-10 7.73091 5.47488 0.417314 1.35854e-09 -1.56862e-10 -1.87761e-10 2.90554 0.965183 0.102902 1.35855e-09 -1.56863e-10 -1.87758e-10 10.2786 0.731801 0.0259123 1.35854e-09 -1.56862e-10 -1.87751e-10 2.22167 -0.733487 -0.20892 -2.02408e-13 1.80299e-13 4.47564e-13 13.4535 -18.631 -15.4923 28.4293 -35.1816 -75.6459 0.0456153 -6.08408 0.858322 1.28439e-09 4.94942e-09 -3.48953e-09 2.23058e-09 8.54498e-09 -6.0246e-09 1.28439e-09 4.94942e-09 -3.48952e-09 -7.73091 5.47488 -0.417314 1.28439e-09 4.94941e-09 -3.48953e-09 -2.90554 0.965183 -0.102902 1.28438e-09 4.94942e-09 -3.48953e-09 -10.2786 0.731801 -0.0259123 1.2844e-09 4.94942e-09 -3.48954e-09 -2.22167 -0.733487 0.20892 -2.03217e-16 0.0 -3.88251e-19 -1.11277 -9.3236 10.3799 -0.242504 36.2049 0.619277 0.793362 -15.2679 4.14913 2.03217e-16 0.0 3.88251e-19 9.25277 -23.74 -7.17594 0.679309 51.8687 -1.03338 -1.90767 -23.5409 -5.31617
0.023786 81.7365 -9.00547 -12.0652 10.7048 -3.6825 10.434 3.76464 -4.82392 3.91908 -3.44751 -1.08139 10.4344 12.3711 -11.4084 -15.0409 -25.2855 -26.8454 -0.0 0.0 0.0 -0.0 0.0 0.0 -2.66137e-13 1.80676e-13 3.54994e-13 6.06067 42.2427 59.4204 -28.395 -37.1155 78.8913 -0.330837 -16.1453 -2.33176 1.25586e-09 2.62728e-10 -8.01537e-10 2.17943e-09 4.52954e-10 -1.37049e-09 1.25588e-09 2.62745e-10 -8.0155e-10 7.73091 5.47488 0.417314 1.25586e-09 2.62732e-10 -8.01539e-10 2.90554 0.965183 0.102902 1.25587e-09 2.62735e-10 -8.01537e-10 10.2786 0.731801 0.0259123 1.25586e-09 2.62732e-10 -8.01529e-10 2.22167 -0.733487 -0.20892 -2.6623e-13 1.80678e-13 3.54755e-13 13.8188 -19.1879 -14.9686 28.4297 -35.2481 -75.76 0.0493327 -6.31795 0.891599 1.29651e-09 4.07144e-09 -3.37656e-09 2.25241e-09 7.0305e-09 -5.83088e-09 1.29651e-09 4.07144e-09 -3.37656e-09 -7.73091 5.47488 -0.417314 1.29651e-09 4.07142e-09 -3.37656e-09 -2.90554 0.965183 -0.102902 1.29651e-09 4.07143e-09 -3.37657e-09 -10.2786 0.731801 -0.0259123 1.29652e-09 4.07144e-09 -3.37657e-09 -2.22167 -0.733487 0.20892 -2.03217e-16 0.0 -3.88251e-19 -0.962202 -8.69898 9.93877 -0.219694 34.9739 0.588812 1.18874 -14.9583 5.44861 2.03217e-16 0.0 3.88251e-19 9.83691 -23.87 -7.39611 0.688311 52.1026 -1.04491 -1.81616 -23.6709 -5.1324
-0.311786 81.7119 -8.86104 -12.5692 10.743 -3.6333 10.6999 3.72127 -4.92482 4.14463 -3.27038 -1.1013 10.5297 12.176 -11.5854 -15.043 -25.4516 -27.2808 -0.0 0.0 0.0 -0.0 0.0 0.0 -3.19539e-13 1.48457e-13 1.80658e-13 5.34712 41.8749 59.5727 -28.3921 -37.1688 78.9817 -0.328451 -16.089 -2.32318 9.73317e-10 8.01616e-10 -1.5742e-09 1.70014e-09 1.39911e-09 -2.70844e-09 9.73337e-10 8.01636e-10 -1.57421e-09 7.73091 5.47488 0.417314 9.73313e-10 8.01622e-10 -1.5742e-09 2.90554 0.965183 0.102902 9.73327e-10 8.01631e-10 -1.5742e-09 10.2786 0.731801 0.0259123 9.73311e-10 8.01622e-10 -1.57419e-09 2.22167 -0.733487 -0.20892 -3.19649e-13 1.48458e-13 1.80363e-13 14.2134 -19.7841 -14.4382 28.43 -35.2679 -75.7928 0.0531164 -6.54267 0.923616 1.13309e-09 2.46853e-09 -2.86399e-09 1.97016e-09 4.26547e-09 -4.94789e-09 1.13309e-09 2.46854e-09 -2.86398e-09 -7.73091 5.47488 -0.417314 1.13309e-09 2.46851e-09 -2.86399e-09 -2.90554 0.965183 -0.102902 1.13309e-09 2.46852e-09 -2.86399e-09 -10.2786 0.731801 -0.0259123 1.1331e-09 2.46852e-09 -2.864e-09 -2.22167 -0.733487 0.20892 -2.03217e-16 0.0 -3.88251e-19 -0.849404 -8.12889 9.29514 -0.198592 33.8325 0.561919 1.61279 -14.7479 6.85296 2.03217e-16 0.0 3.88251e-19 10.3635 -24.0573 -7.61981 0.698768 52.3794 -1.05994 -1.64263 -23.8557 -4.77311
-0.609404 81.7395 -8.72281 -13.0122 10.7844 -3.6027 10.9956 3.66721 -5.0423 4.35296 -3.12293 -1.12595 10.6322 12.0854 -11.7493 -15.046 -25.6768 -27.6776 -0.0 0.0 0.0 -0.0 0.0 0.0 -3.46497e-13 1.05186e-13 -3.02758e-15 4.65442 41.5207 59.713 -28.3889 -37.2239 79.0759 -0.326954 -16.0545 -2.31792 6.28159e-10 1.26333e-09 -2.21376e-09 1.11119e-09 2.21058e-09 -3.81722e-09 6.28179e-10 1.26335e-09 -2.21378e-09 7.73091 5.47488 0.417314 6.28155e-10 1.26334e-09 -2.21376e-09 2.90554 0.965183 0.102902 6.28174e-10 1.26335e-09 -2.21376e-09 10.2786 0.731801 0.0259123 6.28155e-10 1.26334e-09 -2.21375e-09 2.22167 -0.733487 -0.20892 -3.46621e-13 1.05186e-13 -3.3673e-15 14.6122 -20.3461 -13.9217 28.4305 -35.2739 -75.8007 0.0574345 -6.80301 0.960713 8.89202e-10 7.33523e-10 -2.15599e-09 1.54791e-09 1.27213e-09 -3.72729e-09 8.89198e-10 7.33541e-10 -2.15598e-09 -7.73091 5.47488 -0.417314 8.89202e-10 7.33517e-10 -2.15599e-09 -2.90554 0.965183 -0.102902 8.89198e-10 7.3352e-10 -2.15599e-09 -10.2786 0.731801 -0.0259123 8.89208e-10 7.33521e-10 -2.156e-09 -2.22167 -0.733487 0.20892 -2.03217e-16 0.0 -3.88251e-19 -0.680993 -7.58962 8.51513 -0.178993 32.7688 0.538055 2.02158 -14.5192 8.25666 2.03217e-16 0.0 3.88251e-19 10.9202 -24.2716 -7.84077 0.710706 52.6859 -1.07623 -1.47554 -24.0116 -4.43179
-0.855146 81.7976 -8.58417 -13.2742 10.9674 -3.594 11.4109 3.60566 -5.16032 4.52067 -3.04744 -1.14827 10.6777 12.1653 -11.9177 -14.9456 -25.8917 -28.0125 -0.0 0.0 0.0 -0.0 0.0 0.0 -3.30971e-13 7.24073e-14 -1.23843e-13 4.01609 41.2687 59.8084 -28.3868 -37.2581 79.1348 -0.325252 -16.0146 -2.31184 3.37651e-10 1.4514e-09 -2.42823e-09 6.11724e-10 2.54199e-09 -4.19104e-09 3.37669e-10 1.45142e-09 -2.42825e-09 7.73091 5.47488 0.417314 3.37646e-10 1.45141e-09 -2.42823e-09 2.90554 0.965183 0.102902 3.37668e-10 1.45142e-09 -2.42824e-09 10.2786 0.731801 0.0259123 3.37647e-10 1.45141e-09 -2.42822e-09 2.22167 -0.733487 -0.20892 -3.31103e-13 7.24067e-14 -1.24191e-13 14.9863 -20.7995 -13.4399 28.4311 -35.2991 -75.8407 0.063002 -7.14372 1.00927 6.59908e-10 -5.40739e-10 -1.45678e-09 1.14971e-09 -9.27284e-10 -2.52077e-09 6.59904e-10 -5.40717e-10 -1.45676e-09 -7.73091 5.47488 -0.417314 6.59909e-10 -5.40741e-10 -1.45677e-09 -2.90554 0.965183 -0.102902 6.59905e-10 -5.40741e-10 -1.45678e-09 -10.2786 0.731801 -0.0259123 6.59913e-10 -5.4074e-10 -1.45679e-09 -2.22167 -0.733487 0.20892 -2.03217e-16 0.0 -3.88251e-19 -0.365604 -7.05829 7.66469 -0.160794 31.7708 0.516759 2.36132 -14.1585 9.552 2.03217e-16 0.0 3.88251e-19 11.5957 -24.4827 -8.05245 0.72406 53.0092 -1.09149 -1.40734 -24.0566 -4.30348
-1.16346 81.8725 -8.40081 -13.7136 11.1131 -3.7262 12.0311 3.52324 -5.28135 4.61979 -3.08904 -1.16722 10.644 12.5774 -12.1098 -14.6792 -26.1474 -28.2748 -0.0 0.0 0.0 -0.0 0.0 0.0 -2.40892e-13 5.20071e-14 -1.58708e-13 3.43393 41.2037 59.851 -28.3862 -37.2671 79.1505 -0.323473 -15.972 -2.30535 9.27582e-11 1.21115e-09 -1.96872e-09 1.83284e-10 2.12231e-09 -3.40007e-09 9.27731e-11 1.21117e-09 -1.96874e-09 7.73091 5.47488 0.417314 9.27539e-11 1.21116e-09 -1.96872e-09 2.90554 0.965183 0.102902 9.27723e-11 1.21118e-09 -1.96872e-09 10.2786 0.731801 0.0259123 9.27549e-11 1.21116e-09 -1.96871e-09 2.22167 -0.733487 -0.20892 -2.4102e-13 5.20075e-14 -1.59006e-13 15.3309 -21.061 -12.9928 28.432 -35.3606 -75.9421 0.0708819 -7.59161 1.07324 4.24655e-10 -1.2431e-09 -6.67993e-10 7.38934e-10 -2.14178e-09 -1.15796e-09 4.24653e-10 -1.24308e-09 -6.67982e-10 -7.73091 5.47488 -0.417314 4.24656e-10 -1.2431e-09 -6.6799e-10 -2.90554 0.965183 -0.102902 4.24652e-10 -1.2431e-09 -6.67994e-10 -10.2786 0.731801 -0.0259123 4.2466e-10 -1.2431e-09 -6.68004e-10 -2.22167 -0.733487 0.20892 -2.03217e-16 0.0 -3.88251e-19 0.167463 -6.50849 6.70515 -0.143346 30.8247 0.497352 2.61925 -13.551 10.7999 2.03217e-16 0.0 3.88251e-19 12.4747 -24.6723 -8.24988 0.739241 53.3523 -1.10462 -1.50894 -23.9578 -4.53239
-1.56942 81.9299 -8.1854 -14.6287 11.1283 -4.0268 12.7877 3.42299 -5.41167 4.66989 -3.2139 -1.18631 10.5711 13.2376 -12.3134 -14.3136 -26.4587 -28.479 -0.0 0.0 0.0 -0.0 0.0 0.0 -9.40781e-14 3.37812e-14 -1.47414e-13 2.89154 41.2575 59.8581 -28.3865 -37.2626 79.1429 -0.322051 -15.9378 -2.30015 -1.55622e-10 6.81478e-10 -1.04795e-09 -2.56491e-10 1.19539e-09 -1.81238e-09 -1.55613e-10 6.81489e-10 -1.04797e-09 7.73091 5.47488 0.417314 -1.55625e-10 6.81483e-10 -1.04796e-09 2.90554 0.965183 0.102902 -1.55614e-10 6.81492e-10 -1.04796e-09 10.2786 0.731801 0.0259123 -1.55626e-10 6.81486e-10 -1.04795e-09 2.22167 -0.733487 -0.20892 -9.41927e-14 3.37832e-14 -1.47622e-13 15.6541 -21.1904 -12.5724 28.4328 -35.438 -76.0704 0.0812034 -8.11782 1.14863 1.48042e-10 -1.6741e-09 2.68327e-10 2.54866e-10 -2.88936e-09 4.6064e-10 1.48042e-10 -1.67408e-09 2.68337e-10 -7.73091 5.47488 -0.417314 1.48043e-10 -1.6741e-09 2.6833e-10 -2.90554 0.965183 -0.102902 1.48039e-10 -1.6741e-09 2.68325e-10 -10.2786 0.731801 -0.0259123 1.48047e-10 -1.6741e-09 2.68316e-10 -2.22167 -0.733487 0.20892 -2.03217e-16 0.0 -3.88251e-19 0.859783 -5.95793 5.62033 -0.12652 29.9405 0.479971 2.80809 -12.7898 12.0258 2.03217e-16 0.0 3.88251e-19 13.4897 -24.8599 -8.43755 0.75616 53.72 -1.11704 -1.71405 -23.7619 -4.98312
